<?xml version="1.0" standalone="no"?>
<!DOCTYPE svg PUBLIC "-//W3C//DTD SVG 1.1//EN" "http://www.w3.org/Graphics/SVG/1.1/DTD/svg11.dtd" >
<svg xmlns="http://www.w3.org/2000/svg">
<metadata>Generated by IcoMoon</metadata>
<defs>
<font id="icomoon" horiz-adv-x="1024">
<font-face units-per-em="1024" ascent="960" descent="-64" />
<missing-glyph horiz-adv-x="1024" />
<glyph unicode="&#x20;" horiz-adv-x="512" d="" />
<glyph unicode="&#xe900;" glyph-name="bootstrap" d="M569.841 390.159h-141.389v-171.381h141.389c47.13 0 85.69 38.561 85.69 85.69s-38.561 85.69-85.69 85.69zM625.54 595.816c0 42.845-34.276 77.121-77.121 77.121h-119.967v-158.527h119.967c42.845 4.285 77.121 38.561 77.121 81.406zM882.611 960h-741.222c-77.121 0-141.389-64.268-141.389-141.389v-741.222c0-77.121 64.268-141.389 141.389-141.389h741.222c0 0 0 0 0 0 77.121 0 141.389 64.268 141.389 141.389v741.222c0 77.121-64.268 141.389-141.389 141.389zM736.937 158.795c-51.414-38.561-115.682-55.699-184.234-51.414h-295.632v681.238h265.64c64.268 4.285 128.536-17.138 179.95-55.699 42.845-34.276 68.552-85.69 68.552-141.389 0-29.992-8.569-64.268-25.707-89.975-12.854-21.423-34.276-38.561-55.699-51.414 29.992-8.569 59.983-25.707 81.406-51.414 17.138-25.707 29.992-59.983 25.707-94.259 4.285-51.414-17.138-107.113-59.983-145.674z" />
<glyph unicode="&#xe901;" glyph-name="after-effects" d="M204.8 823.467c-37.717 0-68.267-30.549-68.267-68.267v-614.4c0-37.717 30.549-68.267 68.267-68.267h614.4c37.717 0 68.267 30.549 68.267 68.267v614.4c0 37.717-30.549 68.267-68.267 68.267h-614.4zM355.467 614.333h67.667l119.667-336.733h-64.6l-28.467 86.133h-123.933l-28.933-86.133h-60.867l119.467 336.733zM386 550.133l-46.2-138.8h95.933l-45.733 138.8h-4zM687.933 538c72.806 0 116.467-48.279 116.467-128.8v-18.667h-178.267v-3c1.399-42.462 25.875-69.067 63.933-69.067 28.672 0 48.537 10.49 56.933 29.4h54.8c-10.923-46.455-53.223-75.4-113.4-75.4-75.127 0-120.4 49.742-120.4 131.867s46.001 133.667 119.933 133.667zM687.733 492.133c-34.543 0-58.806-24.759-61.4-62.067h120.2c-1.195 37.786-24.086 62.067-58.8 62.067z" />
<glyph unicode="&#xe902;" glyph-name="arrow-up" d="M117.822-64l735.521 729.754v-676.796l170.656 5.891v965.151h-965.151v-170.656l670.905-5.891-729.754-729.754z" />
<glyph unicode="&#xe903;" glyph-name="clipboard" d="M571.114 238.496h-2.949c-9.262-1.074-17.425-5.11-23.672-11.122l0.013 0.012-159.031-159.031c-32.468-32.468-77.323-52.551-126.868-52.551-99.090 0-179.419 80.329-179.419 179.419 0 49.545 20.082 94.4 52.551 126.868v0l168.838 168.838c8.352 8.37 17.528 15.912 27.397 22.496l0.651 0.409c10.474 6.995 22.481 13.206 35.171 18.032l1.244 0.415c10.644 4.064 23.094 7.256 35.999 9.021l0.895 0.1c7.337 1.092 15.804 1.716 24.417 1.716 0.24 0 0.48 0 0.719-0.001h-0.037c3.429 0 6.858 0 11.315-0.48 45.186-2.836 85.405-22.051 115.218-51.715l-0.007 0.007c18.449-18.417 32.841-40.892 41.725-65.971l0.381-1.235c5.308-15.49 19.745-26.426 36.735-26.426 3.844 0 7.558 0.56 11.063 1.602l-0.274-0.070s0.48 0 0.754 0 0.48 0 0.48 0c15.902 4.963 27.244 19.556 27.244 36.797 0 3.647-0.507 7.175-1.456 10.518l0.066-0.271c-11.416 39.911-32.447 74.012-60.474 100.87l-0.080 0.076c-37.353 37.151-85.987 62.993-140.315 71.939l-1.503 0.204c-4.663 0.754-9.327 1.509-13.716 1.989-8.221 0.951-17.756 1.499-27.418 1.509h-0.013c-6.378 0-12.824 0-18.927-0.754-14.752-1.092-28.357-3.282-41.548-6.526l1.704 0.354c-2.675-0.48-5.143-1.234-7.886-1.989-18.421-4.917-34.377-11.053-49.479-18.638l1.474 0.671c-26.296-13.067-48.801-29.439-68.149-48.947l-168.855-168.855c-46.416-46.887-75.093-111.411-75.093-182.633 0-0.238 0-0.475 0.001-0.712v0.037c0.204-142.783 116-258.453 258.811-258.453 71.346 0 135.949 28.869 182.765 75.562l160.74 160.74c6.954 7.033 11.249 16.706 11.249 27.383 0 21.513-17.439 38.952-38.952 38.952-1.232 0-2.451-0.057-3.654-0.169l0.154 0.012zM948.428 884.565c-46.903 46.682-111.581 75.541-182.999 75.541s-136.096-28.859-183.009-75.551l-156.758-156.758c-7.189-7.165-11.638-17.077-11.638-28.028 0-20.784 16.025-37.826 36.393-39.444l0.138-0.009c0.978-0.085 2.115-0.133 3.264-0.133 10.91 0 20.799 4.37 28.013 11.455l-0.006-0.006 157.043 156.563c32.468 32.468 77.323 52.551 126.868 52.551 99.090 0 179.419-80.329 179.419-179.419 0-49.545-20.082-94.4-52.551-126.868v0l-168.838-168.838c-8.352-8.37-17.528-15.912-27.397-22.496l-0.651-0.409c-10.474-6.997-22.481-13.208-35.172-18.032l-1.243-0.415c-10.644-4.064-23.094-7.256-35.999-9.021l-0.895-0.1c-7.335-1.092-15.801-1.716-24.412-1.716-0.242 0-0.483 0-0.724 0.001h0.037c-3.429 0-6.858 0-11.315 0.48-71.281 4.173-130.894 49.957-155.194 113.245l-0.409 1.211c-5.748 15.025-20.048 25.5-36.794 25.5-3.646 0-7.176-0.497-10.527-1.426l0.276 0.065c-17.223-4.622-29.695-20.093-29.695-38.476 0-4.285 0.677-8.411 1.931-12.278l-0.079 0.281c12.224-36.4 32.277-67.396 58.273-92.223l0.087-0.082 0.48-0.48c40.605-40.421 94.553-67.469 154.662-73.963l1.146-0.1c8.221-0.952 17.757-1.5 27.419-1.509h0.012q9.601 0 19.202 0.754c17.612 1.416 33.814 4.211 49.483 8.323l-1.958-0.437c18.42 4.916 34.376 11.052 49.478 18.638l-1.473-0.671c26.296 13.067 48.801 29.439 68.149 48.947l168.855 168.855c46.703 46.855 75.58 111.503 75.58 182.896 0 71.632-29.070 136.474-76.056 183.373l-0.004 0.004z" />
<glyph unicode="&#xe904;" glyph-name="css3" horiz-adv-x="896" d="M0 960h896l-81.493-920.021-367.445-103.979-365.653 104.235zM729.173 771.755l-562.432 0.085 9.045-111.829h432l-10.837-115.925h-283.179l10.283-109.781h263.765l-15.744-150.4-124.16-34.133-126.080 34.603-8.107 90.027h-111.189l12.373-164.523 233.088-72.533 229.248 65.024z" />
<glyph unicode="&#xe905;" glyph-name="download" horiz-adv-x="629" d="M629.412 598.642h-179.832v361.358h-269.813v-361.358h-179.767l314.706-421.628zM0 56.54v-120.54h629.412v120.54z" />
<glyph unicode="&#xe906;" glyph-name="dribbble" d="M512 960c-282.77 0-512-229.23-512-512s229.23-512 512-512c282.77 0 512 229.23 512 512v0c-0.078 282.738-229.261 511.922-511.992 512h-0.008zM837.058 724.025c57.095-66.82 94.015-152.412 100.462-246.381l0.073-1.321c-35.775 2.117-77.609 3.323-119.724 3.323-60.347 0-120.116-2.476-179.21-7.333l7.754 0.513c-11.178 28.254-22.699 56.028-35.18 82.636 91.628 35.736 167.984 93.671 224.935 167.365l0.891 1.199zM512 874.895c0.209 0 0.456 0.001 0.704 0.001 103.582 0 198.505-37.076 272.222-98.682l-0.672 0.546c-55.928-64.647-126.323-115.257-206.259-147.008l-3.588-1.257c-47.422 88.883-103.108 165.413-167.849 233.224l0.383-0.404c31.504 8.399 67.691 13.272 104.999 13.372h0.061zM318.954 828.194c65.431-66.832 121.969-142.761 167.45-225.618l2.691-5.351c-95.31-29.298-204.869-46.17-318.369-46.17-2.159 0-4.316 0.006-6.472 0.018l0.332-0.001c-22.425 0-44.233 0.823-65.834 2.126 31.645 120.868 111.771 218.841 217.819 273.67l2.384 1.121zM86.133 468.436c24.276-1.097 48.827-1.577 73.584-1.303 131.286 0.888 257.395 21.687 375.894 59.52l-8.936-2.463q15.224-31.614 28.803-64.806c-14.881-3.298-27.626-7.238-39.92-12.073l1.791 0.621c-139.55-54.897-252.138-153.212-323.689-278.057l-1.643-3.111c-66.195 74.604-106.628 173.369-106.638 281.578v0.002c-0.069 6.583 0.206 13.235 0.754 19.887zM512 21.516c-0.168 0-0.367 0-0.566 0-98.869 0-189.839 33.823-261.97 90.529l0.913-0.692c63.42 117.656 162.287 209.285 282.137 261.999l3.763 1.476c13.26 5.811 28.81 10.696 44.968 13.887l1.459 0.24q22.768-63.229 40.804-131.189c15.992-57.92 29.85-128.568 38.746-200.753l0.755-7.517c-44.79-17.749-96.677-28.084-150.966-28.185h-0.042zM742.695 89.065c-9.561 80.336-23.498 151.721-42.172 221.165l2.465-10.77c-9.052 34.7-19.476 68.578-30.654 101.083 39.468 3.058 85.468 4.801 131.875 4.801s92.409-1.743 137.941-5.167l-6.067 0.366c-15.049-131.24-87.74-242.914-191.735-310.472l-1.654-1.007z" />
<glyph unicode="&#xe907;" glyph-name="figma" d="M654.080 590.080c78.586 0 142.293 63.707 142.293 142.293s-63.707 142.293-142.293 142.293v0h-284.16c-78.586 0-142.293-63.707-142.293-142.293s63.707-142.293 142.293-142.293v0c-78.469 0-142.080-63.611-142.080-142.080s63.611-142.080 142.080-142.080v0c-78.586 0-142.293-63.707-142.293-142.293s63.707-142.293 142.293-142.293v0c0 0 0 0 0.001 0 78.469 0 142.080 63.611 142.080 142.080 0 0.15 0 0.3-0.001 0.45v-0.023 426.667h142.080zM796.16 448c0-78.469-63.611-142.080-142.080-142.080s-142.080 63.611-142.080 142.080c0 78.469 63.611 142.080 142.080 142.080s142.080-63.611 142.080-142.080z" />
<glyph unicode="&#xe908;" glyph-name="github" horiz-adv-x="1050" d="M524.971 960c-289.907-0.097-524.886-235.135-524.886-525.056 0-230.56 148.606-426.41 355.26-496.994l3.695-1.097c26.283-4.736 35.755 11.435 35.755 25.301 0 12.459-0.427 45.525-0.597 89.259-146.048-31.701-176.896 70.443-176.896 70.443-10.022 32.392-30.644 59.019-57.735 76.469l-0.548 0.331c-47.616 32.597 3.627 31.829 3.627 31.829 34.54-4.859 63.512-25.163 80.103-53.58l0.281-0.522c19.394-34.817 55.984-57.98 97.985-57.98 20.121 0 39.001 5.316 55.311 14.621l-0.55-0.289c2.606 27.697 14.89 52.116 33.387 70.209l0.021 0.020c-116.523 13.227-238.933 58.283-238.933 259.499-0.013 0.855-0.020 1.865-0.020 2.876 0 53.29 20.495 101.794 54.032 138.059l-0.124-0.135c-6.892 18.806-10.878 40.521-10.878 63.166 0 27.489 5.874 53.607 16.434 77.166l-0.479-1.196s44.075 14.165 144.299-53.717c39.388 11.228 84.625 17.684 131.371 17.684s91.982-6.456 134.869-18.525l-3.498 0.841c100.352 67.755 144.341 53.717 144.341 53.717 10.147-22.367 16.060-48.503 16.060-76.019 0-22.568-3.978-44.207-11.27-64.254l0.416 1.307c33.412-35.95 53.916-84.296 53.916-137.431 0-1.185-0.010-2.367-0.030-3.546l0.002 0.177c0-201.728-122.624-246.059-239.573-259.072 22.186-22.661 35.877-53.715 35.877-87.967 0-3.232-0.122-6.436-0.361-9.607l0.026 0.422c0-70.229-0.64-126.848-0.64-144.043 0-14.037 9.387-30.379 36.139-25.216 209.996 71.865 358.282 267.533 358.282 497.835 0 289.765-234.746 524.703-524.439 525.013h-0.029z" />
<glyph unicode="&#xe909;" glyph-name="html5" horiz-adv-x="896" d="M0 960h896l-81.536-919.979-367.488-104.021-365.355 104.021-81.621 919.979zM299.989 544.043l-9.856 115.925h429.099l9.856 111.829h-562.261l29.867-341.675h389.376l-13.824-146.176-124.117-34.133-126.123 34.475-8.021 89.984h-111.488l14.080-177.92 231.381-61.867 229.461 61.525 31.787 348.117h-409.216z" />
<glyph unicode="&#xe90a;" glyph-name="illustrator" horiz-adv-x="1055" d="M440.483 599.767c-9.918-41.53-32.271-109.932-48.394-160.109h98.059c-12.41 40.968-37.255 116.063-49.029 160.109zM820.676 960h-586.008c-129.603 0-234.667-105.064-234.667-234.667v0-554.666c0-129.603 105.064-234.667 234.667-234.667v0h586.008c129.603 0 234.667 105.064 234.667 234.667v0 554.544c0 0.036 0 0.079 0 0.122 0 129.603-105.064 234.667-234.667 234.667v0zM632.253 265.33h-80.616c-0.267-0.040-0.575-0.063-0.888-0.063-2.797 0-5.164 1.836-5.964 4.367l-0.012 0.044-31.758 92.465h-143.277l-29.779-91.854c-0.822-2.848-3.405-4.895-6.466-4.895-0.123 0-0.245 0.003-0.367 0.010l0.017-0.001h-71.993c-4.348 0-5.594 2.443-4.886 6.205l124.1 358.084c2.443 6.816 4.886 14.267 6.205 37.841-0.004 0.064-0.006 0.14-0.006 0.216 0 2.149 1.633 3.917 3.726 4.131l0.018 0.001h99.28c3.103 0 4.348-0.611 4.886-3.713l140.883-397.17c1.246-3.176 0.611-5.668-3.103-5.668zM762.998 270.851c0-3.738-0.611-5.594-5.57-5.594h-74.314c-4.324 0-6.205 1.857-6.205 5.594v297.89c0 3.103 1.246 4.886 4.886 4.886h76.317c3.738 0 4.886-1.221 4.886-4.886zM720.369 606.607c-29.168 0-47.784 19.201-47.784 48.37v0c0 27.923 20.472 47.784 48.394 47.784 29.779 0 47.784-19.861 47.784-47.784 0-29.144-19.226-48.37-48.394-48.37z" />
<glyph unicode="&#xe90b;" glyph-name="indesign" horiz-adv-x="1055" d="M638.14 507.913c-47.784 0-88.751-29.168-88.751-86.895 0-61.44 35.374-88.116 82.546-88.116 10.553 0 20.472 0.611 29.168 3.738v168.171c-5.994 2.008-12.896 3.167-20.069 3.167-1.018 0-2.030-0.023-3.037-0.069l0.143 0.005zM820.676 960h-586.008c-129.603 0-234.667-105.064-234.667-234.667v0-554.666c0-129.603 105.064-234.667 234.667-234.667v0h586.008c129.603 0 234.667 105.064 234.667 234.667v0 554.544c0 0.036 0 0.079 0 0.122 0 129.603-105.064 234.667-234.667 234.667v0zM401.714 270.851c0-3.738-1.246-5.594-5.594-5.594h-75.731c-3.738 0-4.886 1.857-4.886 5.594v395.289c0 4.886 1.857 5.594 4.886 5.594h75.731c3.713 0 5.594-1.246 5.594-5.594zM745.458 283.872c-35.977-15.691-77.893-24.82-121.942-24.82-0.072 0-0.144 0-0.215 0h0.011c-91.781 0-162.528 52.156-162.528 157.617v0c0 88.751 66.399 163.212 179.97 163.212 4.886 0 11.164-0.611 20.472-1.221v122.146c-0.016 0.132-0.025 0.285-0.025 0.44 0 2.017 1.519 3.68 3.475 3.907l0.018 0.002h78.931c3.103 0 3.738-1.246 3.738-3.738v-366.658c-0.015-1.2-0.024-2.617-0.024-4.035 0-14.54 0.896-28.871 2.636-42.94l-0.17 1.684c0-3.103-0.635-4.348-4.348-5.594z" />
<glyph unicode="&#xe90c;" glyph-name="jquery" horiz-adv-x="1063" d="M67.538 719.491c-42.546-67.128-67.801-148.867-67.801-236.505 0-80.242 21.172-155.539 58.234-220.609l-1.154 2.2 5.36-10.184c1.126-2.144 2.198-4.395 3.377-6.486 0.643-1.286 1.394-2.519 2.090-3.698q5.092-9.327 10.72-18.439l3.913-6.432q5.36-8.951 11.31-17.688t11.846-17.099l1.93-2.626c3.377-4.717 6.915-9.38 10.72-13.99l3.966-5.039 9.755-11.953 3.698-4.395c4.395-5.36 8.951-10.399 13.508-15.491h0.268c0.205-0.17 0.382-0.364 0.53-0.58l0.006-0.010c4.449-4.878 9.112-9.702 13.722-14.526l15.169-15.169 4.503-4.288c4.931-4.663 9.97-9.219 15.062-13.722v0l2.626-2.198c4.449-3.913 9.059-7.772 13.668-11.524l5.628-4.503q14.794-11.846 30.285-22.727c1.554-1.126 3.055-2.251 4.663-3.323l1.286-0.911c4.074-2.841 8.255-5.36 12.382-8.201 1.769-1.179 3.538-2.412 5.36-3.591q23.102-14.74 47.491-27.283c3.484-1.822 6.915-3.645 10.452-5.36l6.7-3.27c5.36-2.573 10.72-5.36 16.509-7.665l3.538-1.554c6.379-2.787 12.811-5.36 19.296-7.987l4.717-1.876q10.184-3.966 20.476-7.611c6.7-2.358 13.508-4.556 20.369-6.647l4.931-1.501c5.459-1.981 12.454-4.010 19.599-5.645l1.306-0.251c455.183-82.975 587.363 273.367 587.363 273.367-111.062-144.724-308.101-182.781-494.848-140.328-7.075 1.608-13.99 3.806-20.905 5.843l-5.36 1.554q-20.476 6.325-40.469 14.151l-4.985 1.93c-6.432 2.519-12.811 5.36-19.082 7.933l-3.806 1.662q-8.094 3.645-16.080 7.504l-4.663 2.251c-4.181 2.037-8.308 4.235-12.436 6.325-2.734 1.447-5.36 2.841-8.308 4.395q-7.504 4.020-14.901 8.362l-4.342 2.305q-9.863 5.789-19.457 11.953l-5.36 3.484q-7.022 4.503-13.883 9.219l-4.449 3.162c-4.395 3.109-8.791 6.218-13.079 9.434q-8.898 6.7-17.581 13.668l-5.36 4.235c-4.931 4.074-9.863 8.147-14.687 12.382q-8.683 7.558-17.099 15.437c-1.501 1.394-2.948 2.734-4.342 4.181q-5.682 5.36-11.149 10.72l-4.342 4.342q-6.915 7.075-13.615 14.419l-0.643 0.643q-7.022 7.719-13.829 15.705l-3.591 4.342q-6.968 8.255-13.615 16.777-5.896 7.558-11.524 15.33c-63.683 80.677-102.149 183.829-102.149 295.966 0 72.806 16.215 141.824 45.23 203.641l-1.239-2.937zM359.611 833.447c-32.123-49.723-51.216-110.479-51.216-175.695 0-57.431 14.807-111.404 40.811-158.309l-0.852 1.675c10.033-19.541 20.016-35.991 31.004-51.686l-0.934 1.408c10.407-16.529 21.98-30.864 35.025-43.709l0.030-0.030c4.931-5.36 10.023-10.72 15.223-16.080l4.074-3.966c5.039-4.931 10.184-9.755 15.598-14.526l0.59-0.536c5.95-5.36 12.007-10.184 18.224-15.062l4.181-3.216q9.595-7.451 19.618-14.365c2.841-1.983 5.789-3.859 8.63-5.735 1.394-0.911 2.734-1.876 4.181-2.734q7.933-5.36 16.080-9.863c4.074-2.358 8.308-4.663 12.489-6.968 1.394-0.804 2.948-1.554 4.395-2.305 2.948-1.501 5.789-3.055 8.737-4.449q9.702-4.771 19.564-9.166l3.966-1.662c4.985-2.090 9.97-4.127 15.062-6.057l6.271-2.358c4.61-1.715 9.166-3.216 13.722-4.771l6.271-1.983c5.356-2.036 11.99-4.010 18.792-5.539l1.040-0.196c351.41-58.211 432.456 212.315 432.456 212.315-61.601-80.379-157.645-131.693-265.675-131.693-35.765 0-70.216 5.624-102.517 16.036l2.362-0.658q-20.208 5.36-39.826 12.436l-6.325 2.305q-9.541 3.645-18.921 7.772t-18.439 8.523c-3.055 1.501-6.057 3.109-9.112 4.663l-5.36 2.734q-14.58 7.933-28.57 16.777l-4.288 2.841q-16.67 10.72-32.161 23.317c-66.084 51.63-115.955 121.199-142.524 201.388l-0.859 2.994c-10.082 29.611-15.901 63.721-15.901 99.191 0 57.104 15.084 110.686 41.485 156.977l-0.82-1.561zM605.374 918.566c-21.438-31.861-34.218-71.099-34.218-113.322 0-30.53 6.682-59.499 18.663-85.525l-0.525 1.272c31.177-69.408 87.882-122.695 157.859-148.654l1.926-0.626q6.218-2.305 12.543-4.235c3.373-1.277 7.552-2.513 11.836-3.469l0.653-0.122c194.037-37.521 246.566 99.538 260.61 119.745-46.097-66.412-123.605-82.332-218.586-59.229-37.603 10.009-70.443 26.409-98.992 48.154l0.687-0.502c-84.958 64.322-137.916 187.605-82.332 287.946z" />
<glyph unicode="&#xe90d;" glyph-name="js" d="M0 960h1024v-1024h-1024zM940.096 180.222c-7.439 46.709-37.903 86.029-128.133 122.617-31.426 14.726-66.293 24.898-76.768 48.581-2.127 5.38-3.361 11.613-3.361 18.134 0 4.251 0.524 8.38 1.511 12.325l-0.074-0.349c7.163 18.77 25.018 31.86 45.93 31.86 6.762 0 13.205-1.369 19.066-3.844l-0.322 0.121c18.881-6.46 33.773-20.312 41.475-38.014l0.173-0.447c44.077 28.845 44.077 28.845 74.845 48.025-7.476 12.616-15.743 23.541-25.084 33.44l0.085-0.091c-26.244 27.755-63.322 45.030-104.434 45.030-5.819 0-11.557-0.346-17.194-1.019l0.681 0.066-30.060-3.795c-29.209-6.676-54.171-21.863-72.855-42.779l-0.118-0.134c-18.283-22.7-29.347-51.885-29.347-83.654 0-43.69 20.925-82.493 53.299-106.934l0.339-0.245c58.196-43.521 143.416-53.085 154.296-94.025 10.121-49.948-37.094-65.787-83.904-60.17-32.657 7.465-59.385 28.341-74.551 56.386l-0.295 0.596-78.034-44.836c9.172-18.286 20.713-33.916 34.471-47.275l0.042-0.041c74.238-74.845 259.859-70.848 293.157 42.913 3.86 12.439 6.084 26.739 6.084 41.559 0 10.206-1.054 20.165-3.060 29.775l0.164-0.942 1.923-2.783zM556.659 489.37h-96.15c0-82.639-0.405-164.872-0.405-247.713 1.109-11.218 1.742-24.247 1.742-37.424 0-27.674-2.79-54.696-8.103-80.801l0.44 2.591c-14.068-29.402-50.605-25.657-66.85-20.242-15.414 8.242-27.609 20.779-35.209 36.011l-0.215 0.476c-1.404 3.072-3.079 5.719-5.058 8.106l0.048-0.059-77.831-48.025c12.522-26.97 31.895-48.961 55.921-64.312l0.605-0.361c26.059-14.581 57.181-23.168 90.308-23.168 16.458 0 32.422 2.119 47.632 6.1l-1.306-0.29c33.752 8.468 61.253 30.41 76.961 59.633l0.313 0.638c12.353 31.313 19.514 67.582 19.514 105.525 0 13.126-0.857 26.052-2.518 38.725l0.16-1.491c0.455 87.649 0 175.398 0 263.705v2.378z" />
<glyph unicode="&#xe90e;" glyph-name="linkedin" horiz-adv-x="989" d="M210.67-64h-194.486v713.069h194.486zM113.427 731.294c-0.265-0.002-0.578-0.003-0.891-0.003-63.174 0-114.387 51.213-114.387 114.387s51.213 114.387 114.387 114.387c63.174 0 114.387-51.213 114.387-114.387 0-0.023 0-0.046 0-0.069v0.004c0-0.122 0.001-0.267 0.001-0.412 0-62.765-50.764-113.673-113.474-113.907h-0.022zM988.614-64.206h-194.486v363.461c0 218.351-259.292 201.824-259.292 0v-363.461h-194.486v713.275h194.555v-114.25c90.522 167.672 453.778 180.016 453.778-160.54z" />
<glyph unicode="&#xe90f;" glyph-name="mongodb" horiz-adv-x="473" d="M196.92 251.080h78.759v-315.080h-78.759zM236.321 960c-140.44-127.46-230.102-308.681-236.294-510.91l-0.026-1.090c0-204.902 129.985-334.759 196.92-393.84l39.401 118.16 39.401-118.16c66.935 59.080 196.92 189.065 196.92 393.84-6.219 203.319-95.881 384.54-235.723 511.466l-0.598 0.534zM236.321 960c-140.44-127.46-230.102-308.681-236.294-510.91l-0.026-1.090c0-204.902 129.985-334.759 196.92-393.84l39.401 118.16z" />
<glyph unicode="&#xe910;" glyph-name="mysql" d="M133.333 917.333c-38.656 0-69.203-20.501-83.667-56-4.565-10.965-6.874-22.594-6.917-34.583-0.043-39.723 25.557-71.965 40.917-91.25 2.688-3.371 5.107-6.373 7.667-10l6.917-9.167c6.869-9.003 14.692-19.213 17.167-24.333 0.811-2.347 1.883-6.461 3.333-11.667 6.699-24.107 19.201-68.909 39.083-103 8.021-13.739 19.31-31.007 27.417-43.167-5.419-27.136-14.583-77.121-14.583-107.5 0-53.333 11.060-96.165 35.167-135.333 8.917-13.995 36.129-56.667 82.167-56.667 16.341 0 43.495 6.383 50.833 46.917 32.64-42.112 87.833-94.917 173.167-132.25 0 0-159.966 186.648-188.083 303 0 0-30.599-31.016-56.583-94.333-7.765 19.541-11.333 41.573-11.333 68.667 0 26.752 11.768 86.555 16.333 107.333l4 18.083-10.5 15.25c-0.171 0.299-21.663 31.327-34.25 52.917-14.336 24.576-24.909 62.605-30.583 83-2.773 9.941-4.952 17.136-7 22-7.467 16.171-18.4 30.373-28 42.917l-5.333 7.083c-2.688 3.883-6.239 8.382-10.25 13.417-7.808 9.813-22.343 28.1-21.917 39.833l4.75 3.333 0.083 0.167c33.92 0 77.614-24.079 94.083-33.167 5.376-2.944 9.326-4.978 11.417-5.917l7.417-3.25 14.583-0.5c19.072-0.427 77.040-1.783 118-18.167 74.709-29.867 116.016-59.763 158-114.333 99.157-128.939 135.742-295.919 136.083-297.583l5.333-24.083 23.333-7.583c0.811-0.299 66.115-22.121 127-79.167-76.587-18.944-103.25-56.25-103.25-56.25s20.309-39.595 117.333-101.333c58.667-37.333 90.667-64 138.667-112 0 0-47.971 106.675-115 191.667 51.029 16.341 113.75 24.833 113.75 24.833l-38.833 53.833c-63.915 88.619-149.627 133.342-190.417 150.75-14.165 54.016-56.947 192.693-146.333 308.917-51.157 66.517-105.595 106.296-194 141.667-52.352 20.907-115.301 23.401-143.333 24.083-24.533 13.483-79.049 42.917-133.833 42.917zM306.667 746.667c0 0-18.667 0-40-5.333l58.667-79.917c16 21.248 16 46.083 16 46.083s-10.645 28.5-34.667 39.167z" />
<glyph unicode="&#xe911;" glyph-name="npm" d="M0 640v-352h288v-64h224v64h512v352h-1024zM56.875 583.125h227.625v-245.375h-56.938v188.437h-56.875v-188.437h-113.812v245.375zM341.375 583.125h227.562v-245.312h-113.813v-56.938h-113.75v302.25zM625.813 583.125h341.375v-245.375h-56.938v188.437h-56.875v-188.437h-56.875v188.437h-56.938v-188.437h-113.75v245.375zM455.125 526.187v-131.562h56.875v131.562h-56.875z" />
<glyph unicode="&#xe912;" glyph-name="photoshop" horiz-adv-x="1055" d="M391.601 597.886c-19.861 0-36.644-0.611-42.214-1.246v-127.838c10.553-0.611 17.369-0.611 34.763-0.611 49.029 0 88.116 14.902 88.116 65.788-0.049 39.087-26.726 63.907-80.665 63.907zM820.676 960h-586.008c-129.603 0-234.667-105.064-234.667-234.667v0-554.666c0-129.603 105.064-234.667 234.667-234.667v0h586.008c129.603 0 234.667 105.064 234.667 234.667v0 554.544c0 0.036 0 0.079 0 0.122 0 129.603-105.064 234.667-234.667 234.667v0zM384.638 392.387h-35.3v-122.146c0-3.103-1.246-4.886-4.886-4.886h-76.488c-3.103 0-4.324 1.857-4.324 4.886v395.9c0 3.738 0.611 4.886 3.713 4.886 25.455 0.611 74.46 1.857 121.633 1.857 125.346 0 168.806-69.501 168.806-137.146 0-100.551-77.587-143.351-173.154-143.351zM693.57 259.052c-37.841 0-70.845 6.84-89.973 17.369-2.584 1.17-4.35 3.727-4.35 6.696 0 0.051 0.001 0.101 0.002 0.152v-0.008 67.034c0 3.738 2.443 5.594 4.886 3.738 28.558-18.004 63.296-24.82 91.219-24.82 29.168 0 42.214 8.062 42.214 21.082 0 11.799-10.553 20.496-47.173 34.201-70.112 26.066-93.075 55.87-93.075 100.551 0 48.394 39.087 94.932 120.998 94.932 36.644 0 65.177-4.886 80.616-12.41 2.62-1.334 4.383-4.010 4.383-7.098 0-0.34-0.021-0.674-0.063-1.003l0.004 0.039v-62.050c0-3.738-2.443-6.205-6.205-4.348-20.203 10.456-51.961 17.907-79.81 17.907v0c-29.168 0-38.476-10.553-38.476-21.107s8.086-18.615 43.973-32.271c75.095-27.312 98.67-56.48 98.67-100.526 0-58.972-45.927-98.059-127.838-98.059z" />
<glyph unicode="&#xe913;" glyph-name="php" horiz-adv-x="2154" d="M17.356-63.737h168.826c0.048-0.001 0.104-0.001 0.16-0.001 7.554 0 13.81 5.555 14.907 12.803l0.010 0.083 37.605 195.736h131.484c3.927-0.106 8.55-0.166 13.187-0.166 53.174 0 104.501 7.908 152.869 22.613l-3.716-0.971c44.461 14.975 82.563 38.526 114.043 68.896l-0.090-0.086c28.619 25.802 52.642 56.002 71.161 89.657l0.892 1.769c17.369 31.046 30.803 67.070 38.357 105.21l0.387 2.344c6.591 21.844 10.386 46.947 10.386 72.936 0 60.255-20.395 115.747-54.658 159.949l0.445-0.597c-51.537 52.365-123.179 84.81-202.4 84.81-8.052 0-16.026-0.335-23.908-0.992l1.031 0.069h-322.575c-7.983-0.487-14.491-6.249-16.108-13.822l-0.021-0.115-148.665-780.754c-0.776-2.073-1.226-4.468-1.226-6.969s0.449-4.896 1.272-7.11l-0.046 0.141c3.336-3.447 8.004-5.587 13.172-5.587 1.044 0 2.068 0.087 3.064 0.255l-0.108-0.015zM324.153 598.681h107.204c6.23 0.882 13.425 1.385 20.739 1.385 36.096 0 69.327-12.264 95.755-32.852l-0.349 0.262c11.812-18.819 18.818-41.695 18.818-66.207 0-14.813-2.559-29.027-7.258-42.227l0.273 0.88c-5.769-47.935-28.197-89.78-61.229-120.321l-0.13-0.119c-35.227-22.475-78.173-35.823-124.236-35.823-6.624 0-13.183 0.276-19.668 0.817l0.848-0.057h-85.991zM1378.043 700.801c-47.506 35.277-107.302 56.473-172.049 56.473-10.721 0-21.307-0.581-31.727-1.714l1.29 0.114h-127.978l35.062 189.25c0.999 2.038 1.583 4.435 1.583 6.969s-0.584 4.931-1.625 7.064l0.042-0.095c-1.761 0.652-3.795 1.029-5.917 1.029s-4.156-0.377-6.038-1.068l0.122 0.039h-168.475c-0.048 0.001-0.104 0.001-0.16 0.001-7.554 0-13.81-5.555-14.907-12.803l-0.010-0.083-148.402-781.806c-1.108-1.863-1.763-4.108-1.763-6.506 0-7.116 5.769-12.885 12.885-12.885 0.25 0 0.499 0.007 0.746 0.021l-0.034-0.002h165.583c0.013 0 0.028 0 0.043 0 7.926 0 14.423 6.116 15.030 13.885l0.003 0.052 82.835 437.668h119.388c48.386 0 65.567-10.782 71.002-17.531 4.197-9.855 6.636-21.319 6.636-33.353s-2.44-23.498-6.851-33.925l0.215 0.572-65.567-348.433c-0.995-1.869-1.579-4.088-1.579-6.443s0.584-4.573 1.615-6.518l-0.037 0.076c2.652-3.796 6.932-6.297 11.805-6.486l0.028-0.001h167.774c7.983 0.487 14.491 6.249 16.108 13.822l0.021 0.115 68.722 366.14c7.584 19.321 11.98 41.696 11.98 65.097 0 42.057-14.199 80.798-38.065 111.691l0.314-0.423zM1864.097 755.673h-336.6c-0.327 0.025-0.708 0.040-1.092 0.040-7.94 0-14.446-6.137-15.034-13.926l-0.003-0.051-156.992-786.101c-0.913-2.053-1.445-4.449-1.445-6.969s0.532-4.915 1.489-7.081l-0.044 0.112c2.784-3.282 6.91-5.35 11.52-5.35 0.11 0 0.22 0.001 0.33 0.004h175.296c0.361-0.031 0.781-0.048 1.205-0.048 7.571 0 13.838 5.58 14.914 12.851l0.010 0.082 39.796 195.736h136.568c3.749-0.089 8.166-0.14 12.594-0.14 55.264 0 108.684 7.895 159.194 22.618l-4.014-1.002c49.179 13.932 91.719 37.659 127.269 69.107l-0.342-0.297c29.675 25.846 54.72 56.029 74.386 89.735l0.911 1.691c17.685 31.024 31.458 67.014 39.378 105.149l0.418 2.406c6.717 21.807 10.585 46.874 10.585 72.846 0 60.519-21.004 116.132-56.119 159.948l0.391-0.505c-54.81 55.489-130.893 89.857-215.003 89.857-6.822 0-13.591-0.226-20.3-0.671l0.911 0.048zM1930.804 457.642c-6.839-48.252-30.306-90.061-64.313-120.264l-0.202-0.176c-36.379-22.509-80.491-35.849-127.719-35.849-6.91 0-13.752 0.286-20.517 0.845l0.886-0.059h-85.991l58.028 296.804h106.941c6.27 0.81 13.523 1.272 20.883 1.272 37.782 0 72.719-12.177 101.103-32.82l-0.494 0.343c17.444-19.635 17.444-56.188 11.045-109.921z" />
<glyph unicode="&#xe914;" glyph-name="xd1" horiz-adv-x="1055" d="M637.798 421.018c0-61.44 35.374-88.116 82.522-88.116 10.553 0 20.496 0.611 29.168 3.738v168.171c-5.994 2.008-12.896 3.167-20.069 3.167-1.018 0-2.030-0.023-3.037-0.069l0.143 0.005c-47.784 0-88.727-29.168-88.727-86.895zM820.676 960h-586.008c-129.603 0-234.667-105.064-234.667-234.667v0-554.666c0-129.603 105.064-234.667 234.667-234.667v0h586.008c129.603 0 234.667 105.064 234.667 234.667v0 554.544c0 0.036 0 0.079 0 0.122 0 129.603-105.064 234.667-234.667 234.667v0zM540.912 266.21c-0.669-0.529-1.513-0.863-2.434-0.904h-88.076c-5.594 0-8.697 1.857-10.553 5.594q-41.652 73.483-82.546 147.675h-0.635c-24.82-49.665-52.132-99.916-78.174-148.334-1.32-2.944-4.226-4.958-7.601-4.958-0.386 0-0.766 0.026-1.139 0.077l0.043-0.005h-83.768c-4.348 0-4.348 3.738-2.443 6.205l119.166 197.413-116.723 196.46c-0.609 0.659-0.983 1.544-0.983 2.516 0 1.081 0.462 2.055 1.2 2.733l0.003 0.002c0.668 0.601 1.556 0.969 2.53 0.969 0.124 0 0.247-0.006 0.368-0.018l-0.015 0.001h87.505c4.348 0 6.205-0.611 8.062-4.886 24.82-49.029 53.989-98.059 79.444-147.088h0.611c24.209 49.665 51.497 97.448 76.952 147.088 1.857 3.103 3.103 4.886 8.697 4.886h80.055c4.324 0 4.886-3.103 2.443-6.816l-114.158-189.937 122.879-202.763c0.557-0.709 0.894-1.615 0.894-2.599 0-1.339-0.622-2.532-1.594-3.306l-0.009-0.007zM833.818 283.897c-35.966-15.691-77.87-24.82-121.907-24.82-0.084 0-0.168 0-0.252 0h0.013c-91.878 0-162.625 52.156-162.625 157.617v0c0 88.751 66.399 163.212 179.97 163.212 4.886 0 11.164-0.611 20.472-1.221v122.146c-0.016 0.132-0.025 0.285-0.025 0.44 0 2.017 1.519 3.68 3.475 3.907l0.018 0.002h79.053c3.103 0 3.713-1.246 3.713-3.738v-366.683c-0.013-1.13-0.021-2.466-0.021-3.803 0-14.621 0.895-29.034 2.633-43.185l-0.17 1.697c0-3.103-0.635-4.348-4.348-5.594z" />
<glyph unicode="&#xe915;" glyph-name="reactjs" horiz-adv-x="1151" d="M678.256 448c0-56.578-45.865-102.443-102.443-102.443s-102.443 45.865-102.443 102.443c0 56.578 45.865 102.443 102.443 102.443s102.443-45.865 102.443-102.443zM288.12 244.822l-22.623 5.549c-168.604 42.684-265.071 113.968-265.071 197.629s96.894 155.798 265.497 198.056l22.623 5.976 6.403-22.623c19.544-66.549 41.753-123.172 68.218-177.336l-2.911 6.598 5.122-10.671-5.122-9.817c-23.631-47.734-45.846-104.507-63.31-163.324l-1.998-7.841-6.403-22.623zM255.253 593.981c-128.053-35.855-207.020-90.918-207.020-145.554s78.539-109.699 207.020-145.981c18.313 58.266 37.423 106.611 59.451 153.307l-3.108-7.327c-19.085 39.452-38.196 87.656-54.067 137.308l-2.276 8.246zM863.080 244.395l-6.403 22.623c-19.589 66.584-41.796 123.206-68.236 177.384l2.928-6.647-4.695 10.244 4.695 10.244c23.55 47.671 45.761 104.441 63.279 163.233l2.028 7.931 6.403 22.623 22.623-5.976c169.030-42.684 265.497-114.394 265.497-198.056s-96.467-154.945-265.497-197.629zM839.603 448.427c19.166-39.517 38.416-87.853 54.447-137.633l2.323-8.347c128.053 36.282 207.020 90.918 207.020 145.981s-78.966 109.272-207.020 145.554c-18.401-57.998-37.647-106.187-59.84-152.699l3.070 7.145zM253.973 594.835l-6.403 22.623c-47.38 166.896-32.867 286.84 39.697 328.67 70.856 40.977 185.677-7.683 305.621-130.614l16.22-16.647-16.22-17.074c-41.355-42.793-79.635-89.201-114.1-138.475l-2.428-3.664-6.403-8.964-11.525-1.281c-67.484-5.31-129.523-15.598-189.656-30.687l7.82 1.662-22.623-5.549zM345.317 912.834c-0.382 0.008-0.832 0.012-1.284 0.012-12.069 0-23.398-3.17-33.199-8.724l0.335 0.175c-47.807-27.318-56.343-122.931-23.476-251.838 43.658 10.229 96.668 18.679 150.705 23.563l4.666 0.34c32.397 45.454 64.893 85.264 99.744 122.859l-0.716-0.782c-75.125 72.99-145.981 114.394-196.775 114.394zM806.31-64.214c-68.295 0-156.225 51.648-247.57 145.127l-16.22 17.074 16.22 16.647c41.323 42.907 79.605 89.454 114.077 138.856l2.451 3.71 6.403 8.964 11.098 1.281c67.568 5.23 129.76 15.522 190.021 30.678l-7.758-1.653 22.623 5.976 6.403-22.623c46.953-167.323 32.867-287.266-39.697-328.67-16.213-9.402-35.674-14.951-56.43-14.951-0.57 0-1.139 0.004-1.707 0.013l0.086-0.001zM609.534 97.987c75.125-72.564 145.981-113.968 196.349-113.968 0.382-0.008 0.832-0.012 1.284-0.012 12.069 0 23.398 3.17 33.199 8.724l-0.335-0.175c48.233 27.318 56.77 123.358 23.476 251.838-43.721-10.273-96.732-18.724-150.781-23.571l-4.591-0.332c-32.057-45.518-64.285-85.332-98.918-122.894l0.744 0.817zM897.227 594.835l-22.623 5.549c-52.453 13.625-114.621 24.061-178.287 29.194l-3.976 0.258-11.098 0.854-6.403 9.391c-36.847 52.946-75.129 99.357-116.824 142.446l0.296-0.307-16.22 17.074 16.22 16.647c119.943 122.504 234.765 171.165 305.621 130.188 72.564-41.831 87.503-161.774 39.697-328.67l-6.403-22.623zM707.708 676.362c58.772-5.158 111.933-13.609 163.808-25.44l-8.010 1.537c32.867 128.907 24.33 224.52-23.476 251.838s-136.59-14.513-230.496-105.857c33.86-36.847 66.090-76.8 95.669-118.757l2.505-3.747zM344.89-64.214c-0.325-0.003-0.708-0.005-1.092-0.005-20.79 0-40.284 5.546-57.085 15.239l0.553-0.294c-72.564 41.831-87.503 161.774-39.697 328.67l5.976 22.196 23.050-5.549c52.345-13.462 114.386-23.752 177.909-28.776l3.926-0.25 11.098-1.281 6.83-9.391c36.756-52.963 74.9-99.373 116.438-142.49l-0.336 0.351 16.647-17.074-16.647-16.647c-90.918-93.052-178.848-144.7-247.57-144.7zM288.12 244.822c-32.867-128.907-24.33-224.947 23.050-252.265s136.59 14.513 230.923 105.857c-33.934 36.779-66.293 76.588-96.080 118.356l-2.521 3.721c-58.736 5.35-111.722 13.946-163.424 25.897l8.052-1.567zM575.813 214.943c-39.697 0-79.82 1.281-120.37 4.695l-11.525 1.281-6.403 8.964q-34.148 49.514-64.454 101.589t-55.49 106.711l-4.695 10.244 4.695 10.244q25.611 54.209 55.49 106.711c20.062 34.148 41.404 68.295 64.454 101.589l6.83 8.964 11.525 0.854c36.055 3.206 77.999 5.033 120.37 5.033s84.315-1.828 125.758-5.408l-5.387 0.375 11.098-0.854 6.403-9.391c42.171-59.809 82.266-128.090 116.626-199.647l3.744-8.653 4.695-10.244-4.695-9.817c-37.951-80.154-78.052-148.442-123.37-212.792l3 4.492-6.403-8.964-11.525-1.281c-40.123-2.988-81.1-4.695-119.943-4.695zM469.956 266.164c31.498-2.552 68.188-4.007 105.217-4.007s73.72 1.455 110.017 4.311l-4.8-0.304c35.916 51.85 70.86 111.418 101.342 173.571l3.662 8.265c-33.971 70.155-68.918 129.587-107.981 185.949l2.977-4.54c-31.436 2.569-68.049 4.033-105.004 4.033s-73.568-1.464-109.784-4.338l4.78 0.305c-36.141-51.846-71.089-111.281-101.452-173.367l-3.552-8.042c34.26-70.477 69.201-130.041 108.131-186.647l-3.127 4.811z" />
<glyph unicode="&#xe916;" glyph-name="sass" d="M511.979 960c282.758 0 511.979-229.221 511.979-511.979s-229.221-511.979-511.979-511.979c-282.758 0-511.979 229.221-511.979 511.979v0c0.048 282.738 229.24 511.931 511.974 511.979h0.005zM410.274 277.404c3.301-10.914 5.201-23.457 5.201-36.444 0-14.3-2.304-28.062-6.561-40.934l0.264 0.921-2.782-7.671c-6.852-16.254-15.938-30.206-27.063-42.245l0.088 0.096c-29.799-32.412-71.358-44.635-89.186-34.351-19.22 11.212-9.61 56.943 24.952 93.443 25.815 25.48 55.632 46.991 88.404 63.489l2.004 0.914 4.678 2.571zM833.067 740.827c-23.14 90.999-173.905 120.924-316.662 70.177-93.754-32.079-174.587-79.573-243.681-140.133l0.821 0.705c-78.649-73.423-91.125-137.278-85.983-164.127 18.166-94.371 147.52-155.95 200.712-201.807v-0.253c-15.721-7.629-130.661-65.246-157.299-124.844-28.83-62.717 4.51-107.563 26.259-113.253 11.152-2.742 23.955-4.315 37.125-4.315 57.014 0 107.143 29.48 135.975 74.028l0.384 0.633c17.632 27.056 28.118 60.17 28.118 95.732 0 21.935-3.989 42.938-11.282 62.323l0.403-1.22c14.869 3.976 31.941 6.26 49.546 6.26 10.045 0 19.916-0.744 29.561-2.178l-1.090 0.133c89.65-10.2 107.563-66.553 103.643-89.608-3.671-17.218-14.154-31.48-28.428-40.098l-0.275-0.154c-6.449-3.878-8.43-5.184-7.713-7.713 0.674-3.793 3.878-3.793 8.978-3.245 27.139 9.095 46.714 33.427 48.67 62.586l0.012 0.216c1.897 54.793-50.578 116.372-144.022 115.192-2.745 0.117-5.967 0.183-9.203 0.183-25.329 0-49.706-4.076-72.511-11.609l1.632 0.467c-1.184 1.819-2.691 3.326-4.452 4.474l-0.058 0.036c-57.617 62.085-164.38 105.624-160.165 188.151 1.264 30.094 12.139 109.586 204.8 205.432 158.099 78.734 284.208 56.943 305.999 8.978 31.232-68.407-67.438-195.822-231.817-214.368-7.39-1.573-15.882-2.474-24.583-2.474-30.211 0-57.885 10.859-79.333 28.887l0.189-0.154c-8.893 9.61-10.158 10.242-13.361 8.43-5.184-2.571-1.939-10.874 0-16.016 12.867-22.636 33.831-39.413 58.862-46.532l0.694-0.169c19.891-4.477 42.735-7.042 66.179-7.042 45.507 0 88.757 9.666 127.808 27.058l-2-0.795c99.176 38.355 176.603 145.286 154.222 234.894l3.077-2.866z" />
<glyph unicode="&#xe917;" glyph-name="send" d="M991.846 957.666l-979.14-426.386c-7.557-3.727-12.663-11.377-12.663-20.219 0-9.144 5.461-17.012 13.299-20.521l0.142-0.057 264.838-149.62c6.033-3.463 13.264-5.505 20.971-5.505 10.674 0 20.433 3.917 27.919 10.391l-0.054-0.046 522.243 450.242c3.457 2.939 11.755 8.644 14.953 5.359s-1.902-11.496-4.84-14.953l-451.798-508.932c-6.679-7.478-10.761-17.399-10.761-28.274 0-8.393 2.431-16.217 6.628-22.809l-0.103 0.172 172.871-277.63c3.799-7.414 11.389-12.4 20.142-12.4 8.957 0 16.695 5.22 20.337 12.783l0.059 0.135 405.123 978.708c1.27 2.728 2.010 5.923 2.010 9.29 0 12.412-10.062 22.473-22.473 22.473-3.528 0-6.865-0.813-9.836-2.261l0.133 0.059z" />
<glyph unicode="&#xe918;" glyph-name="xd" horiz-adv-x="1055" d="M637.798 421.018c0-61.44 35.374-88.116 82.522-88.116 10.553 0 20.496 0.611 29.168 3.738v168.171c-5.994 2.008-12.896 3.167-20.069 3.167-1.018 0-2.030-0.023-3.037-0.069l0.143 0.005c-47.784 0-88.727-29.168-88.727-86.895zM820.676 960h-586.008c-129.603 0-234.667-105.064-234.667-234.667v0-554.666c0-129.603 105.064-234.667 234.667-234.667v0h586.008c129.603 0 234.667 105.064 234.667 234.667v0 554.544c0 0.036 0 0.079 0 0.122 0 129.603-105.064 234.667-234.667 234.667v0zM540.912 266.21c-0.669-0.529-1.513-0.863-2.434-0.904h-88.076c-5.594 0-8.697 1.857-10.553 5.594q-41.652 73.483-82.546 147.675h-0.635c-24.82-49.665-52.132-99.916-78.174-148.334-1.32-2.944-4.226-4.958-7.601-4.958-0.386 0-0.766 0.026-1.139 0.077l0.043-0.005h-83.768c-4.348 0-4.348 3.738-2.443 6.205l119.166 197.413-116.723 196.46c-0.609 0.659-0.983 1.544-0.983 2.516 0 1.081 0.462 2.055 1.2 2.733l0.003 0.002c0.668 0.601 1.556 0.969 2.53 0.969 0.124 0 0.247-0.006 0.368-0.018l-0.015 0.001h87.505c4.348 0 6.205-0.611 8.062-4.886 24.82-49.029 53.989-98.059 79.444-147.088h0.611c24.209 49.665 51.497 97.448 76.952 147.088 1.857 3.103 3.103 4.886 8.697 4.886h80.055c4.324 0 4.886-3.103 2.443-6.816l-114.158-189.937 122.879-202.763c0.557-0.709 0.894-1.615 0.894-2.599 0-1.339-0.622-2.532-1.594-3.306l-0.009-0.007zM833.818 283.897c-35.966-15.691-77.87-24.82-121.907-24.82-0.084 0-0.168 0-0.252 0h0.013c-91.878 0-162.625 52.156-162.625 157.617v0c0 88.751 66.399 163.212 179.97 163.212 4.886 0 11.164-0.611 20.472-1.221v122.146c-0.016 0.132-0.025 0.285-0.025 0.44 0 2.017 1.519 3.68 3.475 3.907l0.018 0.002h79.053c3.103 0 3.713-1.246 3.713-3.738v-366.683c-0.013-1.13-0.021-2.466-0.021-3.803 0-14.621 0.895-29.034 2.633-43.185l-0.17 1.697c0-3.103-0.635-4.348-4.348-5.594z" />
<glyph unicode="&#xe919;" glyph-name="vscode" horiz-adv-x="1030" d="M993.61 851.831l-212.217 103.018c-7.296 3.056-15.762 4.928-24.637 5.149l-0.088 0.002h-4.121c-0.102 0.001-0.223 0.001-0.344 0.001-13.873 0-26.66-4.648-36.889-12.471l0.146 0.107-7.211-6.181-405.891-370.35-176.676 131.348c-7.117 5.488-16.16 8.796-25.976 8.796-0.647 0-1.29-0.014-1.93-0.043l0.091 0.003c-0.153 0.002-0.335 0.003-0.516 0.003-10.075 0-19.382-3.287-26.908-8.847l0.124 0.087-56.66-51.509c-8.55-7.586-13.911-18.602-13.911-30.87 0-0.194 0.001-0.387 0.004-0.58v0.029c0-0.046 0-0.1 0-0.154 0-12.55 5.343-23.853 13.879-31.756l0.028-0.026 154.527-139.59-154.527-140.105c-8.498-7.922-13.796-19.181-13.796-31.678s5.298-23.756 13.77-31.654l0.026-0.024 56.66-51.509c8.018-7.041 18.599-11.338 30.182-11.338 0.254 0 0.508 0.002 0.761 0.006h-0.038c9.15 0.707 17.44 3.882 24.352 8.854l-0.143-0.098 176.676 134.439 405.891-370.35c10.062-10.359 23.698-17.2 38.914-18.527l0.233-0.016h8.757c0.227-0.004 0.495-0.006 0.764-0.006 8.968 0 17.4 2.292 24.743 6.321l-0.268-0.135 212.217 103.018c21.398 10.415 36.007 31.766 36.57 56.586l0.001 0.074v691.767c-0.076 25.463-14.803 47.469-36.192 58.036l-0.38 0.17zM772.636 214.664l-309.054 233.336 309.054 233.336z" />
<glyph unicode="&#xe91a;" glyph-name="vuejs" horiz-adv-x="1182" d="M590.887 402.836l330.149 557.164h-193.419l-136.602-236.278-136.602 236.406h-193.675zM972.347 959.744l-381.46-643.735-381.375 643.735h-209.513l590.887-1023.744 590.887 1023.744z" />
<glyph unicode="&#xe91b;" glyph-name="malt" d="M876.237 812.237c-77.283 77.283-159.736 27.212-211.44-24.491l-488.189-487.917c-51.703-51.703-105.856-130.347-24.491-211.44s160.009-27.212 211.712 24.219l487.917 488.189c51.703 51.703 100.686 134.157 24.491 211.44zM409.818 832.374l103.407-103.407 105.312 105.040c7.075 7.347 14.423 13.878 21.498 20.137-6.093 59.897-56.263 106.244-117.258 106.244-3.362 0-6.691-0.141-9.981-0.417l0.43 0.029c-84.358 0-115.925-50.343-127.082-106.128 7.892-6.803 15.783-13.606 23.675-21.498zM618.264 64.442l-105.040 106.4-103.135-103.407c-7.892-7.892-15.783-14.967-23.675-21.77 11.973-56.602 45.445-108.849 126.809-108.849s115.108 52.248 126.809 108.849c-7.347 5.715-14.15 11.701-21.77 18.777zM366.006 581.749h-199.194c-72.929 0-166.812-23.13-166.812-132.252 0-81.637 52.248-115.108 108.849-126.809 6.803 7.619 257.157 259.061 257.157 259.061zM917.872 576.306c-6.259-7.347-257.157-259.334-257.157-259.334h196.473c72.929 0 166.812 17.416 166.812 132.524 0.246 2.852 0.386 6.172 0.386 9.525 0 61.091-46.491 111.323-106.023 117.245l-0.49 0.039zM431.315 647.058l35.648 35.648-103.407 103.407c-51.703 51.431-130.075 105.584-211.44 24.219-25.475-21.748-41.523-53.892-41.523-89.784 0-28.516 10.13-54.667 26.988-75.049l-0.159 0.198c9.524 0.544 293.893 1.361 293.893 1.361zM595.134 252.479l-35.648-35.648 105.040-105.312c51.703-51.431 134.429-101.502 211.712-24.219 57.69 57.69 44.356 118.102 12.518 166.812-10.341-1.633-293.621-1.633-293.621-1.633z" />
<glyph unicode="&#xe91c;" glyph-name="more" d="M960.59 511.453h-384.599v385.052c0 35.193-28.529 63.722-63.722 63.722s-63.722-28.529-63.722-63.722v0-384.599h-385.052c-35.193 0-63.722-28.529-63.722-63.722s28.529-63.722 63.722-63.722v0h385.506v-384.599c0-35.193 28.529-63.722 63.722-63.722s63.722 28.529 63.722 63.722v0 384.145h384.599c35.193 0 63.722 28.529 63.722 63.722s-28.529 63.722-63.722 63.722v0z" />
<glyph unicode="&#xe91d;" glyph-name="menu" d="M128 746.667c-23.564 0-42.667-19.103-42.667-42.667s19.103-42.667 42.667-42.667v0h768c23.564 0 42.667 19.103 42.667 42.667s-19.103 42.667-42.667 42.667v0h-768zM128 490.667c-23.564 0-42.667-19.103-42.667-42.667s19.103-42.667 42.667-42.667v0h768c23.564 0 42.667 19.103 42.667 42.667s-19.103 42.667-42.667 42.667v0h-768zM128 234.667c-23.564 0-42.667-19.103-42.667-42.667s19.103-42.667 42.667-42.667v0h768c23.564 0 42.667 19.103 42.667 42.667s-19.103 42.667-42.667 42.667v0h-768z" />
<glyph unicode="&#xe91e;" glyph-name="docker" d="M480 832c-5.891 0-10.667-4.776-10.667-10.667v0-64c0-5.973 4.693-10.667 10.667-10.667h64c5.891 0 10.667 4.776 10.667 10.667v0 64c0 5.891-4.776 10.667-10.667 10.667v0h-64zM224 704c-5.891 0-10.667-4.776-10.667-10.667v0-64c0-5.973 4.693-10.667 10.667-10.667h64c5.891 0 10.667 4.776 10.667 10.667v0 64c0 5.891-4.776 10.667-10.667 10.667v0h-64zM352 704c-5.891 0-10.667-4.776-10.667-10.667v0-64c0-5.973 4.693-10.667 10.667-10.667h64c5.891 0 10.667 4.776 10.667 10.667v0 64c0 5.891-4.776 10.667-10.667 10.667v0h-64zM480 704c-5.891 0-10.667-4.776-10.667-10.667v0-64c0-5.973 4.693-10.667 10.667-10.667h64c5.891 0 10.667 4.776 10.667 10.667v0 64c0 5.891-4.776 10.667-10.667 10.667v0h-64zM799.573 654.933l-9.6-13.867c-11.526-17.439-20.557-37.729-25.957-59.454l-0.283-1.346c-3.069-11.072-4.833-23.786-4.833-36.912 0-28.228 8.159-54.551 22.247-76.739l-0.347 0.584c-25.173-14.080-68.48-18.987-76.8-19.2h-661.333c-23.564 0-42.667-19.103-42.667-42.667v0c0-42.667 9.173-104.96 29.653-160.427 23.253-60.587 57.6-105.173 102.827-132.693 50.347-30.72 132.053-48.213 225.067-48.213 41.813 0 83.627 3.627 125.013 11.307 57.173 10.453 112.427 30.293 162.987 58.88 42.963 25.072 79.686 55.274 110.964 90.427l0.396 0.453c53.333 60.16 85.333 127.36 108.8 186.88l0.427 0.213c64-2.56 102.613 22.187 123.733 42.667 12.8 12.373 23.467 27.733 29.867 44.587l4.267 12.16-10.027 7.893c-2.773 2.133-28.8 21.76-83.413 21.76-14.507 0-28.8-1.28-43.093-3.84-8.121 46.235-35.083 84.96-72.514 108.624l-0.659 0.389-14.933 8.533zM96 576c-5.891 0-10.667-4.776-10.667-10.667v0-64c0-5.973 4.693-10.667 10.667-10.667h64c5.891 0 10.667 4.776 10.667 10.667v0 64c0 5.891-4.776 10.667-10.667 10.667v0h-64zM224 576c-5.891 0-10.667-4.776-10.667-10.667v0-64c0-5.973 4.693-10.667 10.667-10.667h64c5.891 0 10.667 4.776 10.667 10.667v0 64c0 5.891-4.776 10.667-10.667 10.667v0h-64zM352 576c-5.891 0-10.667-4.776-10.667-10.667v0-64c0-5.973 4.693-10.667 10.667-10.667h64c5.891 0 10.667 4.776 10.667 10.667v0 64c0 5.891-4.776 10.667-10.667 10.667v0h-64zM480 576c-5.891 0-10.667-4.776-10.667-10.667v0-64c0-5.973 4.693-10.667 10.667-10.667h64c5.891 0 10.667 4.776 10.667 10.667v0 64c0 5.891-4.776 10.667-10.667 10.667v0h-64zM608 576c-5.891 0-10.667-4.776-10.667-10.667v0-64c0-5.973 4.693-10.667 10.667-10.667h64c5.891 0 10.667 4.776 10.667 10.667v0 64c0 5.891-4.776 10.667-10.667 10.667v0h-64z" />
<glyph unicode="&#xe91f;" glyph-name="pug" d="M512 823.467s-40.277 0-90.453-7.509c-20.48-3.072-42.667-7.509-64.853-13.653-14.336 5.461-34.133 12.288-57.003 12.288-34.816 0-80.896-36.523-135.168-77.141-32.768-17.067-96.256-58.027-96.256-77.141 0-38.571 0-58.027 19.115-116.053 10.807-35.697 27.638-66.657 49.523-93.309l-0.371 0.466v-152.576c0-20.821 8.192-36.181 17.408-51.541s21.163-30.379 34.133-44.373c22.781-26.48 49.641-48.662 79.754-65.784l1.483-0.776c1.365-0.683 5.803-4.779 13.995-14.336s20.139-23.893 37.547-36.864c35.157-26.283 92.16-46.763 191.147-46.763 99.328 0 155.989 20.48 191.147 46.763 17.408 13.312 29.355 27.307 37.547 36.864s12.629 13.653 13.995 14.336c31.592 17.904 58.452 40.085 80.907 66.167l0.331 0.393c12.971 13.995 24.917 29.013 34.133 44.373s17.408 30.72 17.408 51.541v152.917c17.408 12.629 37.547 58.027 49.152 92.843 19.115 58.027 19.115 77.141 19.115 115.712 0 19.115-63.488 59.733-96.256 77.141-54.272 40.619-100.352 77.141-135.168 77.141-22.869 0-42.667-6.827-57.003-12.288-22.187 6.144-44.373 10.581-64.853 13.653-50.176 7.509-90.453 7.509-90.453 7.509zM512 755.2s35.499 0 80.213-6.827 97.621-21.163 126.976-43.008c21.204-16.166 38.762-35.9 52.052-58.451l0.513-0.941-15.701 3.755c-11.669 1.955-25.114 3.072-38.82 3.072-0.152 0-0.305 0-0.457 0h0.024c-1.531 0.063-3.328 0.099-5.133 0.099-43.595 0-82.295-20.956-106.577-53.343l-0.248-0.345c-20.48-29.696-24.576-61.099-24.576-82.944 0-18.851 15.282-34.133 34.133-34.133s34.133 15.282 34.133 34.133v0c0.345 16.415 4.994 31.675 12.858 44.785l-0.229-0.412c9.216 13.312 21.504 23.893 55.637 23.893 39.595 0 66.219-10.24 90.453-27.648 10.24-39.253 11.947-69.973 11.947-69.973v-187.733c0 1.707-1.365-6.485-7.509-16.384-23.15-34.408-52.301-62.905-86.207-84.629l-1.175-0.704c-17.408-8.875-27.307-21.504-35.499-31.061-8.533-9.899-15.701-18.432-26.624-26.283-21.504-16.384-59.733-33.451-150.187-33.451s-128.683 17.067-150.187 33.451c-9.99 7.795-18.732 16.429-26.384 25.973l-0.24 0.31c-8.192 9.899-18.091 22.187-35.499 30.72-35.081 22.428-64.231 50.926-86.717 84.287l-0.665 1.046c-6.144 10.24-7.509 18.432-7.509 16.384v187.733s2.048 30.72 11.947 70.315c23.425 17.343 52.889 27.76 84.786 27.76 1.993 0 3.976-0.041 5.95-0.121l-0.283 0.009c34.133 0 46.421-10.581 55.637-23.893 9.216-13.653 12.629-33.451 12.629-44.373 0-18.851 15.282-34.133 34.133-34.133s34.133 15.282 34.133 34.133v0c0 21.845-4.437 53.248-24.576 82.944-24.53 32.733-63.23 53.688-106.825 53.688-1.805 0-3.602-0.036-5.389-0.107l0.257 0.008c-19.797 0-37.547-2.731-54.613-6.827 12.971 22.187 30.037 43.008 52.224 59.392 29.355 21.845 81.92 36.523 126.976 43.008 44.715 6.827 80.213 6.827 80.213 6.827zM461.483 686.592c-0.506 0.036-1.096 0.056-1.69 0.056-7.597 0-14.42-3.309-19.109-8.564l-0.022-0.025c-7.851-7.509-7.509-23.893 0-31.403 41.984-42.667 43.008-56.661 47.445-74.069 4.096-17.408 12.288-22.187 23.893-22.187s19.797 4.779 23.893 22.187c4.437 17.408 5.461 31.403 47.445 74.069 7.509 7.851 7.851 23.893 0 31.403-7.509 7.851-18.773 11.264-27.989 5.803-20.139-11.264-43.349-31.061-43.349-31.061s-23.211 19.797-43.349 31.061c-2.054 1.304-4.465 2.259-7.049 2.713l-0.119 0.017zM290.133 516.267c-23.893-2.389-39.595-18.432-46.763-27.307l4.096 1.024c13.995 0 25.6-11.264 25.6-24.917s-11.264-24.576-25.259-24.917c6.827-12.288 18.773-23.211 40.277-26.283 30.72 5.12 53.248 25.941 53.248 52.224 0 25.941-22.528 46.763-51.2 50.176zM733.867 516.267c-28.672-3.413-51.2-24.235-51.2-50.176 0-26.283 22.528-47.104 53.248-52.224 21.504 3.072 33.451 13.653 40.277 26.283-0.001 0-0.002 0-0.002 0-13.83 0-25.064 11.115-25.256 24.899v0.018c0 13.653 11.605 24.917 25.6 24.917l4.096-0.683c-11.307 14.312-27.679 24.188-46.371 26.918l-0.392 0.047zM512 482.133c-27.989 0-52.907-13.995-67.925-35.499-34.475-5.461-171.008-38.229-171.008-182.272 0-36.864 39.936-55.296 79.531-55.296 73.387 0 119.467 34.133 159.403 34.133s85.333-34.133 159.403-34.133c39.595 0 79.531 18.432 79.531 55.296 0 144.043-136.192 176.469-171.008 182.272-15.166 21.546-39.917 35.461-67.919 35.499h-0.006z" />
</font>
</defs>
</svg>
